<svg xmlns="http://www.w3.org/2000/svg" viewBox="0 0 32 32"><defs><style>.cls-1{fill:#0a6c9b;}</style></defs><title>linkedin</title><g id="Layer_2" data-name="Layer 2"><g id="RAW_ICONS_-_SQUARE_ROUNDED_CIRCLE" data-name="RAW ICONS - SQUARE / ROUNDED / CIRCLE"><path class="cls-1" d="M16,0A16,16,0,1,0,32,16,16.0002,16.0002,0,0,0,16,0ZM11.6328,23.6465H8.2021V13.3301h3.4307ZM9.917,11.92H9.8945a1.788,1.788,0,1,1,.0449-3.5664A1.78876,1.78876,0,1,1,9.917,11.92ZM24,23.6465H20.57031V18.127c0-1.3867-.49611-2.334-1.73831-2.334a1.88107,1.88107,0,0,0-1.75969,1.2559,2.33051,2.33051,0,0,0-.11331.8359v5.7617H13.53031s.04389-9.3496,0-10.3164H16.959v1.461a3.40358,3.40358,0,0,1,3.0918-1.7032c2.2558,0,3.9492,1.4727,3.9492,4.6426Z"/></g></g></svg>