<?xml version="1.0" encoding="utf-8"?><svg xmlns="http://www.w3.org/2000/svg" viewBox="0 0 206.73924 75.34707"><defs><style>.cls-1{fill:#fff;}.cls-2{fill:#f8b31e;}.cls-3{fill:#febf4f;}.cls-4{fill:#ffd281;}</style></defs><title>logo-clean</title><g id="Layer_2" data-name="Layer 2"><g id="Layer_1-2" data-name="Layer 1"><path class="cls-1" d="M37.06526,29.1724l3.012,7.422h-6.003Zm-1.232-8.945-12.797,31.664h4.86l4.507-11.201h9.324l4.529,11.201h4.838l-12.798-31.664Z"/><path class="cls-1" d="M56.30726,24.62039a15.07761,15.07761,0,0,0,0,22.878,18.33034,18.33034,0,0,0,12.71,4.73,20.52469,20.52469,0,0,0,13.214-5.126l-3.408-2.75a15.52886,15.52886,0,0,1-9.806,3.759,13.64476,13.64476,0,0,1-9.445-3.523,11.20753,11.20753,0,0,1,0-17.038,13.6448,13.6448,0,0,1,9.445-3.523,15.52444,15.52444,0,0,1,9.806,3.76l3.408-2.791a20.529,20.529,0,0,0-13.214-5.125,18.28662,18.28662,0,0,0-12.71,4.749"/><polygon class="cls-1" points="88.644 20.228 88.644 51.892 105.772 51.892 105.772 47.775 93.195 47.775 93.195 20.228 88.644 20.228"/><path class="cls-1" d="M124.63626,29.1724l3.013,7.422h-6.003Zm-1.232-8.945-12.797,31.664h4.859l4.509-11.201h9.323l4.529,11.201h4.838l-12.797-31.664Z"/><path class="cls-1" d="M149.37025,24.34439h4.157a7.53311,7.53311,0,0,1,5.2,1.938,6.19414,6.19414,0,0,1,0,9.411,7.50547,7.50547,0,0,1-5.2,1.949h-4.157Zm-4.551-4.117v31.664h4.551v-10.132h4.157l7.036,10.132h5.519l-7.806-10.825a9.97011,9.97011,0,0,0,3.694-2.454,10.05023,10.05023,0,0,0,0-15.238,12.72141,12.72141,0,0,0-7.168-3.147Z"/><rect class="cls-1" x="173.58425" y="20.22641" width="4.55099" height="31.66498"/><path class="cls-1" d="M189.93025,22.04837a6.787,6.787,0,0,0-2.409,5.205,6.68176,6.68176,0,0,0,2.32,5.175,15.6728,15.6728,0,0,0,6.058,3.215,13.57229,13.57229,0,0,1,4.42,2.593,5.40428,5.40428,0,0,1,0,8.213,6.93671,6.93671,0,0,1-9.103,0q-1.629-1.464-2.046-4.967l-4.419,1.444a10.64527,10.64527,0,0,0,3.254,6.393,11.80926,11.80926,0,0,0,15.513.009,9.076,9.076,0,0,0,3.221-6.882v-.226a8.97456,8.97456,0,0,0-3.232-6.853,17.73917,17.73917,0,0,0-7.015-3.8,12.08855,12.08855,0,0,1-3.341-1.959,3.10341,3.10341,0,0,1,0-4.701,4.0351,4.0351,0,0,1,5.211-.01,7.02341,7.02341,0,0,1,1.363,2.375l4.134-1.465a8.888,8.888,0,0,0-2.286-3.779,8.903,8.903,0,0,0-11.643.02"/><polygon class="cls-1" points="54.909 59.797 53.204 59.797 53.204 58.861 57.682 58.861 57.682 59.797 55.976 59.797 55.976 68.001 54.909 68.001 54.909 59.797"/><polygon class="cls-1" points="65.531 58.861 65.531 62.78 68.151 62.78 68.151 58.861 69.219 58.861 69.219 68.001 68.151 68.001 68.151 63.729 65.531 63.729 65.531 68.001 64.463 68.001 64.463 58.861 65.531 58.861"/><polygon class="cls-1" points="80.035 63.662 77.692 63.662 77.692 67.093 80.354 67.093 80.354 68.001 76.625 68.001 76.625 58.862 80.187 58.862 80.187 59.77 77.692 59.77 77.692 62.781 80.035 62.781 80.035 63.662"/><path class="cls-1" d="M87.27315,58.99692a6.22221,6.22221,0,0,1,1.539-.177,2.92253,2.92253,0,0,1,2.108.651,2.43064,2.43064,0,0,1,.651,1.79,2.38131,2.38131,0,0,1-1.497,2.34594v.027c.693.204,1.054.855,1.261,2.048a12.74847,12.74847,0,0,0,.527,2.319h-1.081a11.56683,11.56683,0,0,1-.499-2.264c-.208-1.248-.61-1.723-1.525-1.723h-.416v3.987h-1.068Zm1.068,4.217h.443a1.67163,1.67163,0,0,0,1.706-1.831c0-1.057-.444-1.708-1.594-1.722a2.21166,2.21166,0,0,0-.555.054Z"/><path class="cls-1" d="M99.89206,65.26187l-.624,2.739H98.242l2.135-9.14h1.179l2.079,9.14h-1.053l-.625-2.739Zm1.927-.841-.485-2.319c-.139-.651-.264-1.41-.374-2.088h-.056c-.111.691-.249,1.477-.374,2.088l-.486,2.319Z"/><path class="cls-1" d="M110.54185,58.99658a6.36437,6.36437,0,0,1,1.553-.176,2.87238,2.87238,0,0,1,2.066.677,2.53745,2.53745,0,0,1,.693,1.886,2.86294,2.86294,0,0,1-.568,1.871,2.76365,2.76365,0,0,1-2.205,1.017c-.18,0-.319,0-.471-.014v3.743h-1.068Zm1.068,4.38a1.793,1.793,0,0,0,.416.041c1.054,0,1.761-.678,1.761-1.967,0-.935-.402-1.776-1.581-1.776a2.21466,2.21466,0,0,0-.596.068Z"/><polygon class="cls-1" points="125.226 63.662 122.883 63.662 122.883 67.093 125.545 67.093 125.545 68.001 121.816 68.001 121.816 58.862 125.378 58.862 125.378 59.77 122.883 59.77 122.883 62.781 125.226 62.781 125.226 63.662"/><path class="cls-1" d="M133.51905,58.86087v6.13c0,1.64.555,2.196,1.276,2.196.789,0,1.289-.596,1.289-2.196v-6.13h1.067v5.967c0,2.373-.998,3.281-2.384,3.281-1.4,0-2.315-.895-2.315-3.159v-6.089Z"/><polygon class="cls-1" points="145.638 59.797 143.933 59.797 143.933 58.861 148.411 58.861 148.411 59.797 146.706 59.797 146.706 68.001 145.638 68.001 145.638 59.797"/><rect class="cls-1" x="155.19226" y="58.86136" width="1.06799" height="9.14001"/><path class="cls-1" d="M167.76885,67.83817a3.04148,3.04148,0,0,1-1.331.244c-1.83,0-3.133-1.437-3.133-4.543,0-3.607,1.83-4.76,3.3-4.76a2.36388,2.36388,0,0,1,1.164.231l-.236.881a2.07234,2.07234,0,0,0-.942-.19c-.999,0-2.163.949-2.163,3.743s1.053,3.716,2.191,3.716a2.36634,2.36634,0,0,0,.984-.203Z"/><path class="cls-1" d="M174.39816,66.79392a2.781,2.781,0,0,0,1.345.366,1.44539,1.44539,0,0,0,1.552-1.546,2.33484,2.33484,0,0,0-1.233-1.89795,3.39066,3.39066,0,0,1-1.761-2.536,2.329,2.329,0,0,1,2.25256-2.403q.10773-.00348.21544.003a2.46745,2.46745,0,0,1,1.317.339l-.264.895a1.97965,1.97965,0,0,0-1.108-.312,1.27442,1.27442,0,0,0-1.34428,1.2005q-.00284.0502-.00171.1005c0,.909.486,1.262,1.373,1.885a3.12015,3.12015,0,0,1,1.622,2.631,2.4768,2.4768,0,0,1-2.38472,2.56559q-.11764.00431-.23527-.00259a3.20655,3.20655,0,0,1-1.581-.393Z"/><path class="cls-2" d="M24.52316,65.39346a17.2306,17.2306,0,0,0-4.431,5.18007l-.176.314a38.14611,38.14611,0,0,0,10.135,3.667l.443-6.963a30.8306,30.8306,0,0,1-5.971-2.19806"/><path class="cls-3" d="M38.14476,68.54477a31.01949,31.01949,0,0,1-7.651-.954l-.443,6.963a37.3287,37.3287,0,0,0,5.265.718h.002a37.642,37.642,0,0,0,5.311-.039l.433-6.829c-.96.09-1.933.141-2.917.141"/><path class="cls-2" d="M7.997,44.72a17.20947,17.20947,0,0,0-7.011-.28094l-.355.058a37.86848,37.86848,0,0,0,3.44,10.216l5.946-4.152a30.79845,30.79845,0,0,1-2.02-5.841"/><path class="cls-4" d="M10.14526,63.39816a37.71,37.71,0,0,0,8.368,6.702l.177-.315a17.24091,17.24091,0,0,0,2.132-6.531,31.121,31.121,0,0,1-4.774-3.979Z"/><path class="cls-3" d="M10.01666,50.56027l-5.946,4.153a37.3096,37.3096,0,0,0,6.075,8.685l5.902-4.123a31.0522,31.0522,0,0,1-6.031-8.715"/><path class="cls-4" d="M7.33316,34.24631l-6.94-2.055a37.73093,37.73093,0,0,0-.021,10.719l.357-.058a17.21038,17.21038,0,0,0,6.559-2.482c-.083-.928-.133-1.865-.133-2.815a31.18744,31.18744,0,0,1,.178-3.309"/><path class="cls-3" d="M10.24466,24.05466l-6.849-2.028a37.30818,37.30818,0,0,0-3.002,10.165l6.94,2.055a30.7819,30.7819,0,0,1,2.911-10.192"/><path class="cls-2" d="M13.57186,18.68289a17.22154,17.22154,0,0,0-4.066-5.476l-.267-.242a37.889,37.889,0,0,0-5.844,9.062l6.85,2.028a30.89217,30.89217,0,0,1,3.327-5.372"/><path class="cls-2" d="M37.69226,6.57736a17.2929,17.2929,0,0,0,1.546-6.184l.023-.359a37.82755,37.82755,0,0,0-10.73,1.081l2.543,6.271a31.02141,31.02141,0,0,1,6.618-.809"/><path class="cls-4" d="M18.71226,5.10629a37.74705,37.74705,0,0,0-8.392,6.664l.268.243a17.20911,17.20911,0,0,0,5.786,3.493,31.10376,31.10376,0,0,1,4.946-3.97Z"/><path class="cls-3" d="M31.07425,7.386l-2.543-6.27a37.29507,37.29507,0,0,0-9.819,3.99l2.608,6.431a30.797,30.797,0,0,1,9.754-4.151"/><path class="cls-3" d="M57.41916,13.29837l3.132-5.56994a37.37892,37.37892,0,0,0-9.242-5.18805l-3.191,5.67505a30.91465,30.91465,0,0,1,9.301,5.08294"/><path class="cls-4" d="M51.309,2.54058A37.74844,37.74844,0,0,0,40.867.13458l-.023.361a17.32042,17.32042,0,0,0,.729,6.263,30.81335,30.81335,0,0,1,6.545,1.457Z"/><path class="cls-2" d="M60.55116,7.72867l-3.132,5.57a31.233,31.233,0,0,1,3.391,3.154,21.912,21.912,0,0,1,6.961-1.426,37.85872,37.85872,0,0,0-7.22-7.298"/><path class="cls-4" d="M40.62816,75.23337a39.33526,39.33526,0,0,0,10.541-2.86395l-.142-.333a17.27721,17.27721,0,0,0-3.463-5.269,30.74759,30.74759,0,0,1-6.502,1.636Z"/></g></g></svg>