<svg xmlns="http://www.w3.org/2000/svg" viewBox="0 0 39.02344 31.64063"><defs><style>.cls-1{fill:#fab602;}</style></defs><title>alea-svg</title><g id="Layer_2" data-name="Layer 2"><g id="Layer_1-2" data-name="Layer 1"><path class="cls-1" d="M17.34375,3.50391q-2.75536,1.57762-4.45312,2.7163a20.51011,20.51011,0,0,0-3.457,3.00733,13.75548,13.75548,0,0,0-2.51953,3.67969,16.749,16.749,0,0,0-1.23047,4.96386h2.8125A8.48427,8.48427,0,0,1,14.209,19.6582a6.5384,6.5384,0,0,1,2.08008,5.24414,6.919,6.919,0,0,1-1.8457,4.59961A6.343,6.343,0,0,1,9.375,31.64063q-5.04053,0-7.207-3.3042A15.598,15.598,0,0,1,0,19.65088a14.68993,14.68993,0,0,1,1.64063-6.92969A24.54228,24.54228,0,0,1,5.625,7.13574a28.77825,28.77825,0,0,1,5.09766-4.269Q13.4165,1.11109,15.23438,0Zm21.67969,0q-2.75538,1.57762-4.45313,2.7163a20.51008,20.51008,0,0,0-3.457,3.00733,13.51813,13.51813,0,0,0-2.54883,3.709,17.05434,17.05434,0,0,0-1.20117,4.93457h2.8125a8.48429,8.48429,0,0,1,5.71289,1.78711,6.53843,6.53843,0,0,1,2.08008,5.24414,6.919,6.919,0,0,1-1.8457,4.59961,6.343,6.343,0,0,1-5.06836,2.13868q-5.04053,0-7.207-3.3042a15.59789,15.59789,0,0,1-2.168-8.68555,14.68992,14.68992,0,0,1,1.64062-6.92969,24.54263,24.54263,0,0,1,3.98438-5.58545,28.77855,28.77855,0,0,1,5.09765-4.269Q35.09619,1.11109,36.91406,0Z"/></g></g></svg>